<?xml version="1.0" encoding="utf-8"?>
<!-- Generator: Adobe Illustrator 18.0.0, SVG Export Plug-In . SVG Version: 6.00 Build 0)  -->
<!DOCTYPE svg PUBLIC "-//W3C//DTD SVG 1.1//EN" "http://www.w3.org/Graphics/SVG/1.1/DTD/svg11.dtd">
<svg version="1.1" id="Capa_1" xmlns="http://www.w3.org/2000/svg" xmlns:xlink="http://www.w3.org/1999/xlink" x="0px" y="0px"
	 viewBox="896.3 222.3 1288.4 767.6" enable-background="new 896.3 222.3 1288.4 767.6" xml:space="preserve">
<path fill="#FFFFFF" d="M2170.2,569l-331.6-331.4c-20.4-20.4-53.3-20.4-73.7,0s-20.4,53.3,0,73.7l242.7,242.7H949.2
	c-28.9,0-52.1,23.2-52.1,52.1c0,28.9,23.2,52.1,52.1,52.1h1058.1l-242.5,242.5c-20.4,20.4-20.4,53.3,0,73.7
	c10,10,23.5,15.4,36.7,15.4c13,0,26.5-5,36.7-15.4l331.4-331.4C2190.6,622.3,2190.6,589.1,2170.2,569z"/>
</svg>
