<svg xmlns="http://www.w3.org/2000/svg" viewBox="0 0 117.48 172.64"><defs><style>.cls-1{fill:#acacac;}.cls-2{fill:#e5e5e5;}</style></defs><title>logo-white</title><g id="Layer_2" data-name="Layer 2"><g id="Layer_1-2" data-name="Layer 1"><path class="cls-1" d="M50.67,126.72c2.7-1.44,6-2.69,8.48-4.31C24.88,93.81,2.12,79.13.38,109.75c-.3,5.33.24,4.58.54,3.85,0,.15,1.5,4.51,1.5,4.51S25,140.38,50.67,126.72Z"/><path class="cls-2" d="M58.45,122.26C40.36,134,22.22,132,8.08,120.4,6.33,119,1.45,115.7,0,112.45c.53,49.8,42.9,71.8,84.12,54.17,19-8.12,35.29-30.67,33.18-52.33C114.15,81.91,74.56,111.79,58.45,122.26Z"/><path class="cls-1" d="M108,63.65a30.21,30.21,0,0,0-1.41-19.16s-24.86-33.15-51.76.27c1.12.82,2.24,1.71,3.36,2.68C85.81,71.34,103.53,80.66,108,63.65Z"/><path class="cls-2" d="M8.6,48.83l0,.14.05-.14Z"/><path class="cls-2" d="M8.39,49.43h0L8.55,49Z"/><path class="cls-2" d="M107.21,45.47C99.49,25.32,82.77-.22,58.47,0,33.6.23,17.76,26.17,9.48,46.57-3,77.28,17.89,74.32,40.35,60.73c12.21-7.39,22.55-21.31,36.86-24a35.32,35.32,0,0,1,20.36,2.13,33.89,33.89,0,0,1,6.06,3.5S106.79,44.53,107.21,45.47Z"/></g></g></svg>