<?xml version="1.0" encoding="utf-8"?>
<!-- Generator: Adobe Illustrator 21.1.0, SVG Export Plug-In . SVG Version: 6.00 Build 0)  -->
<svg version="1.1" id="Layer_1" xmlns="http://www.w3.org/2000/svg" xmlns:xlink="http://www.w3.org/1999/xlink" x="0px" y="0px"
	 viewBox="0 0 117.5 172.6" style="enable-background:new 0 0 117.5 172.6;" xml:space="preserve">
<style type="text/css">
	.st0{fill:#771C34;}
	.st1{fill:#C10C43;}
	.st2{fill:#996F24;}
	.st3{fill:#E5E5E5;}
	.st4{fill:#E5AC2C;}
</style>
<title>logo-white</title>
<g id="Layer_2">
	<g id="Layer_1-2">
		<path class="st0" d="M50.7,126.7c2.7-1.4,6-2.7,8.5-4.3c-34.3-28.6-57-43.3-58.8-12.7c-0.3,5.3,0.2,4.6,0.5,3.8
			c0,0.2,1.5,4.5,1.5,4.5S25,140.4,50.7,126.7z"/>
		<path class="st1" d="M58.5,122.3C40.4,134,22.2,132,8.1,120.4c-1.8-1.4-6.6-4.7-8.1-8c0.5,49.8,42.9,71.8,84.1,54.2
			c19-8.1,35.3-30.7,33.2-52.3C114.2,81.9,74.6,111.8,58.5,122.3z"/>
		<path class="st2" d="M108,63.7c1.6-6.4,1.1-13.1-1.4-19.2c0,0-24.9-33.2-51.8,0.3c1.1,0.8,2.2,1.7,3.4,2.7
			C85.8,71.3,103.5,80.7,108,63.7z"/>
		<path class="st3" d="M8.6,48.8V49V48.8L8.6,48.8z"/>
		<path class="st3" d="M8.4,49.4L8.4,49.4L8.6,49L8.4,49.4z"/>
		<path class="st4" d="M107.2,45.5C99.5,25.3,82.8-0.2,58.5,0c-24.9,0.2-40.7,26.2-49,46.6C-3,77.3,17.9,74.3,40.3,60.7
			c12.2-7.4,22.5-21.3,36.9-24c6.8-1.3,13.9-0.6,20.4,2.1c2.1,1,4.2,2.1,6.1,3.5C103.6,42.4,106.8,44.5,107.2,45.5z"/>
	</g>
</g>
</svg>
