<?xml version="1.0" encoding="utf-8"?>
<!-- Generator: Adobe Illustrator 22.0.1, SVG Export Plug-In . SVG Version: 6.00 Build 0)  -->
<svg version="1.1" id="Logo" xmlns="http://www.w3.org/2000/svg" xmlns:xlink="http://www.w3.org/1999/xlink" x="0px" y="0px"
	 viewBox="0 0 145.5 56.7" style="enable-background:new 0 0 145.5 56.7;" xml:space="preserve">
<style type="text/css">
	.st0{fill:#0095A9;}
	.st1{fill:#F26649;}
</style>
<g>
	<g>
		<g>
			<path class="st0" d="M144.1,53h-6h0c-4.3,0-6.9-0.1-8.9-1.4c-2.4-1.5-4.1-4.7-4.1-7.8v-0.7v-9.6c0-4.3,0.1-6.9,1.4-8.9
				c1.5-2.4,4.1-4,7.8-4v0h9.9c0.7,0,1.2-0.5,1.2-1.1v-1.4c0-0.6-0.5-1.1-1.2-1.1h-5.7H134l0,0c0,0,0,0,0,0h0c0,0,0,0,0,0
				c-4.6,0-8.9,2.6-10.6,6c-1.2,2.1-1.7,4.9-1.7,10.3c0,0,0,0,0,0v10.6h0c0,0,0,0,0,0v0.6c0,0,0,0.1,0.1,0.1
				c0.3,4.3,2.7,8.5,5.9,10.1c2,1.1,4.5,1.6,9.2,1.7c0.1,0,0.1,0,0.2,0h7.2c0.9,0,1.3-0.4,1.3-1V54C145.4,53.3,144.8,53,144.1,53z"
				/>
			<path class="st0" d="M144.4,34.3h-5h-1.9c-1.1,0-1.1,1-1.1,1v1.4c0,0.6,0.5,1.1,1.1,1.1h7c0.6,0,1.1-0.5,1.1-1.1v-1.4
				C145.5,34.8,145,34.3,144.4,34.3z"/>
		</g>
		<path class="st0" d="M40.9,16.8h-2.4c-0.4,0-0.8,0.2-1,0.6L21.1,50.7L4.7,17.4c-0.2-0.4-0.5-0.6-1-0.6H1.3c-0.6,0-1.1,0.5-1.1,1.1
			v37.7c0,0.6,0.5,1.1,1.1,1.1h1.5c0.6,0,1.1-0.5,1.1-1.1V23.9L19.7,56c0.2,0.4,0.5,0.6,1,0.6h0.9c0.4,0,0.8-0.2,1-0.6l15.8-32.1
			v31.6c0,0.6,0.5,1.1,1.1,1.1h1.5c0.6,0,1.1-0.5,1.1-1.1V17.9C42,17.3,41.5,16.8,40.9,16.8"/>
		<path class="st0" d="M114.5,37.8c1.8-2.3,2.7-5.4,2.6-8.3c0-4.6-2.5-9.2-6-10.9c-2.2-1.3-4.9-1.7-10.5-1.7H92
			c-0.6,0-1.1,0.5-1.1,1.1v37.7c0,0.6,0.5,1.1,1.1,1.1h1.5c0.6,0,1.1-0.5,1.1-1.1V20.4h6c4.3,0,6.9,0.1,8.9,1.4c2.4,1.6,4,4.7,4,7.9
			c0,3-0.9,5.2-2.9,7.3c-2.1,2.1-6.3,2.1-8.9,2.1h-1.1c-0.4,0-0.8,0.2-0.9,0.6c-0.2,0.4-0.2,0.8,0.1,1.1l11.1,15.6
			c0.2,0.3,0.5,0.4,0.9,0.4h1.9c0.4,0,0.8-0.2,0.9-0.6c0.2-0.4,0.2-0.8-0.1-1.1l-9-12.6C109,42.1,111.9,41.3,114.5,37.8"/>
	</g>
	<g>
		<path class="st1" d="M80.8,22.1c-3.7-3.7-8.8-5.2-14.2-5.7c-1.1-0.1-1.1,0.6-1.1,0.6v2.2c0,0.7,1.1,0.7,1.1,0.7
			c9.4,0,16.6,7.2,16.6,16.7S76,53.2,66.6,53.2c-9.3,0-16.6-7.3-16.6-16.6v0h0c0-0.7-0.3-0.7-0.8-0.7h-2c-0.9,0-0.7,1-0.7,1h0
			c0.1,5.5,2.1,10.5,5.9,14.1c3.7,3.7,8.8,5.7,14.2,5.7c5.4,0,10.5-2,14.2-5.7c3.8-3.7,5.9-8.8,5.9-14.4S84.6,25.9,80.8,22.1z"/>
		<g>
			<g>
				<path class="st1" d="M24.8,11.1c-2.7,0-4.8-2.2-4.8-4.9c0-2.8,2-4.9,4.8-4.9s4.8,2.1,4.8,4.9C29.5,8.9,27.5,11.1,24.8,11.1
					 M24.8,0.2c-3.3,0-5.8,2.6-5.8,6c0,3.4,2.6,6,5.8,6c3.3,0,5.8-2.6,5.8-6S28,0.2,24.8,0.2"/>
				<path class="st1" d="M24.8,12.3c-3.4,0-6-2.7-6-6.1c0-3.4,2.6-6.1,6-6.1s6,2.7,6,6.1C30.8,9.6,28.1,12.3,24.8,12.3z M24.8,0.3
					c-3.2,0-5.7,2.6-5.7,5.8c0,3.3,2.5,5.8,5.7,5.8c3.2,0,5.7-2.6,5.7-5.8C30.5,2.9,28,0.3,24.8,0.3z M24.8,11.2
					c-2.8,0-4.9-2.2-4.9-5.1C19.9,3.2,22,1,24.8,1c2.8,0,4.9,2.2,4.9,5.1C29.7,9,27.6,11.2,24.8,11.2z M24.8,1.4
					c-2.6,0-4.6,2.1-4.6,4.8c0,2.7,2,4.8,4.6,4.8c2.6,0,4.6-2.1,4.6-4.8S27.4,1.4,24.8,1.4z"/>
			</g>
			<g>
				<path class="st1" d="M6.7,0.3H0.5c-0.2,0-0.3,0.1-0.3,0.3v0.4c0,0.2,0.1,0.3,0.3,0.3H3v10.2c0,0.2,0.1,0.3,0.3,0.3h0.4
					c0.2,0,0.3-0.1,0.3-0.3V1.4h2.6C6.9,1.4,7,1.2,7,1.1V0.7C7,0.5,6.9,0.3,6.7,0.3"/>
				<path class="st1" d="M3.8,12.1H3.4c-0.3,0-0.5-0.2-0.5-0.5v-10H0.5C0.2,1.5,0,1.3,0,1.1V0.7c0-0.3,0.2-0.5,0.5-0.5h6.2
					c0.3,0,0.5,0.2,0.5,0.5v0.4c0,0.3-0.2,0.5-0.5,0.5H4.3v10C4.3,11.9,4.1,12.1,3.8,12.1z M0.5,0.5c-0.1,0-0.2,0.1-0.2,0.2v0.4
					c0,0.1,0.1,0.2,0.2,0.2h2.7v10.4c0,0.1,0.1,0.2,0.2,0.2h0.4c0.1,0,0.2-0.1,0.2-0.2V1.2h2.7c0.1,0,0.2-0.1,0.2-0.2V0.7
					c0-0.1-0.1-0.2-0.2-0.2H0.5z"/>
			</g>
			<g>
				<path class="st1" d="M16.1,0.3h-0.4c-0.2,0-0.3,0.1-0.3,0.3v4.9h-5.3V0.7c0-0.2-0.1-0.3-0.3-0.3H9.3C9.1,0.3,9,0.5,9,0.7v10.9
					c0,0.2,0.1,0.3,0.3,0.3h0.4c0.2,0,0.3-0.1,0.3-0.3v-5h5.3v5c0,0.2,0.1,0.3,0.3,0.3h0.4c0.2,0,0.3-0.1,0.3-0.3V0.7
					C16.4,0.5,16.3,0.3,16.1,0.3"/>
				<path class="st1" d="M16.1,12.1h-0.4c-0.3,0-0.5-0.2-0.5-0.5V6.8h-5v4.8c0,0.3-0.2,0.5-0.5,0.5H9.3c-0.3,0-0.5-0.2-0.5-0.5V0.7
					c0-0.3,0.2-0.5,0.5-0.5h0.4c0.3,0,0.5,0.2,0.5,0.5v4.7h5V0.7c0-0.3,0.2-0.5,0.5-0.5h0.4c0.3,0,0.5,0.2,0.5,0.5v10.9
					C16.6,11.9,16.4,12.1,16.1,12.1z M9.9,6.5h5.6v5.1c0,0.1,0.1,0.2,0.2,0.2h0.4c0.1,0,0.2-0.1,0.2-0.2V0.7c0-0.1-0.1-0.2-0.2-0.2
					h-0.4c-0.1,0-0.2,0.1-0.2,0.2v5.1H9.9V0.7c0-0.1-0.1-0.2-0.2-0.2H9.3c-0.1,0-0.2,0.1-0.2,0.2v10.9c0,0.1,0.1,0.2,0.2,0.2h0.4
					c0.1,0,0.2-0.1,0.2-0.2V6.5z"/>
			</g>
			<g>
				<g>
					<path class="st1" d="M62.8,5.5l-0.1,0c-1.5-0.4-2.6-0.8-2.6-2.2c0-1.2,0.9-2.1,2.1-2.1c1.1,0,1.8,0.6,2,1.9
						c0,0.2,0.2,0.3,0.3,0.3H65c0.1,0,0.2,0,0.2-0.1c0.1-0.1,0.1-0.2,0.1-0.3c-0.3-2.1-1.8-2.8-3.1-2.8c-0.9,0-1.8,0.3-2.4,0.9
						C59.3,1.7,59,2.5,59,3.3c0,2.3,2,2.8,3,3.1l0.1,0c1,0.3,2.4,0.7,2.4,2.4c0,1.4-1.2,2.3-2.3,2.3c-0.3,0-2-0.1-2.3-2.3
						c0-0.2-0.2-0.3-0.3-0.3h-0.4c-0.1,0-0.2,0-0.2,0.1c-0.1,0.1-0.1,0.2-0.1,0.2c0.1,2.1,1.8,3.3,3.4,3.3c1.6,0,3.4-1.3,3.4-3.4
						C65.6,6.3,63.5,5.7,62.8,5.5"/>
				</g>
				<g>
					<path class="st1" d="M62.2,12.3c-1.6,0-3.4-1.2-3.6-3.4c0-0.1,0-0.3,0.1-0.4c0.1-0.1,0.2-0.2,0.3-0.2h0.4
						c0.2,0,0.4,0.2,0.5,0.4c0.2,2,1.8,2.1,2.2,2.1c1.1,0,2.2-0.8,2.2-2.1c0-1.6-1.3-1.9-2.3-2.2l-0.1,0c-1-0.3-3.1-0.8-3.1-3.2
						c0-0.9,0.3-1.7,0.9-2.3c0.6-0.6,1.5-1,2.5-1c1.3,0,2.9,0.8,3.2,3c0,0.1,0,0.3-0.1,0.4c-0.1,0.1-0.2,0.2-0.4,0.2h-0.4
						c-0.2,0-0.4-0.2-0.5-0.4c-0.2-1.2-0.8-1.7-1.9-1.7c-1.1,0-2,0.8-2,1.9c0,1.3,1,1.7,2.5,2.1l0.1,0c0.7,0.2,2.9,0.8,2.9,3.4
						C65.8,10.9,63.9,12.3,62.2,12.3z M59.1,8.7c0,0-0.1,0-0.1,0.1c0,0,0,0.1,0,0.1c0.1,2,1.7,3.1,3.2,3.1c1.6,0,3.3-1.2,3.3-3.2
						c0-2.4-2-2.9-2.7-3.1l-0.1,0c-1.6-0.4-2.7-0.8-2.7-2.4C60,2,60.9,1,62.2,1c1.2,0,1.9,0.7,2.2,2c0,0.1,0.1,0.1,0.2,0.1H65
						c0,0,0.1,0,0.1-0.1c0,0,0-0.1,0-0.1c-0.3-2-1.7-2.7-2.9-2.7c-0.9,0-1.7,0.3-2.3,0.9c-0.5,0.5-0.8,1.3-0.8,2.1
						c0,2.2,1.9,2.7,2.9,2.9l0.1,0c1,0.3,2.5,0.7,2.5,2.5c0,1.5-1.3,2.4-2.5,2.4c-0.4,0-2.2-0.1-2.5-2.4c0-0.1-0.1-0.1-0.2-0.1H59.1
						z"/>
				</g>
			</g>
			<g>
				<path class="st1" d="M44.6,0.3h-0.7c-0.1,0-0.2,0.1-0.3,0.2L39,10.1l-4.6-9.6c-0.1-0.1-0.2-0.2-0.3-0.2h-0.7
					c-0.2,0-0.3,0.1-0.3,0.3v10.9c0,0.2,0.1,0.3,0.3,0.3h0.4c0.2,0,0.3-0.1,0.3-0.3V2.5l4.4,9.2c0.1,0.1,0.2,0.2,0.3,0.2h0.2
					c0.1,0,0.2-0.1,0.3-0.2l4.4-9.2v9.1c0,0.2,0.1,0.3,0.3,0.3h0.4c0.2,0,0.3-0.1,0.3-0.3V0.7C44.9,0.5,44.8,0.3,44.6,0.3"/>
				<path class="st1" d="M44.6,12.1h-0.4c-0.3,0-0.5-0.2-0.5-0.5V3.2l-4.1,8.6c-0.1,0.2-0.2,0.3-0.4,0.3h-0.2
					c-0.2,0-0.3-0.1-0.4-0.3l-4.1-8.6v8.4c0,0.3-0.2,0.5-0.5,0.5h-0.4c-0.3,0-0.5-0.2-0.5-0.5V0.7c0-0.3,0.2-0.5,0.5-0.5h0.7
					c0.2,0,0.3,0.1,0.4,0.3L39,9.8l4.5-9.3c0.1-0.2,0.2-0.3,0.4-0.3h0.7c0.3,0,0.5,0.2,0.5,0.5v10.9C45.1,11.9,44.9,12.1,44.6,12.1z
					 M44,1.8v9.7c0,0.1,0.1,0.2,0.2,0.2h0.4c0.1,0,0.2-0.1,0.2-0.2V0.7c0-0.1-0.1-0.2-0.2-0.2h-0.7c-0.1,0-0.1,0-0.1,0.1L39,10.5
					l-4.8-9.9c0-0.1-0.1-0.1-0.1-0.1h-0.7c-0.1,0-0.2,0.1-0.2,0.2v10.9c0,0.1,0.1,0.2,0.2,0.2h0.4c0.1,0,0.2-0.1,0.2-0.2V1.8
					l4.7,9.8c0,0.1,0.1,0.1,0.2,0.1h0.2c0.1,0,0.1,0,0.2-0.1L44,1.8z"/>
			</g>
			<g>
				<g>
					<path class="st1" d="M50,7.1l2.1-5.1l2.1,5.1H50z M52.7,0.5c0-0.1-0.2-0.2-0.3-0.2h-0.6c-0.1,0-0.2,0.1-0.3,0.2L47,11.5
						c0,0.1,0,0.2,0,0.3c0.1,0.1,0.2,0.1,0.3,0.1h0.5c0.1,0,0.2-0.1,0.3-0.2l1.5-3.6h5.1l1.5,3.6c0.1,0.1,0.2,0.2,0.3,0.2h0.5
						c0.1,0,0.2-0.1,0.3-0.1c0.1-0.1,0.1-0.2,0-0.3L52.7,0.5z"/>
				</g>
				<g>
					<path class="st1" d="M56.9,12.1h-0.5c-0.2,0-0.4-0.1-0.4-0.3l-1.5-3.5h-4.9l-1.5,3.5c-0.1,0.2-0.2,0.3-0.4,0.3h-0.5
						c-0.2,0-0.3-0.1-0.4-0.2c-0.1-0.1-0.1-0.3,0-0.4l4.6-10.9c0.1-0.2,0.2-0.3,0.4-0.3h0.6c0.2,0,0.4,0.1,0.4,0.3l4.6,10.9
						c0.1,0.1,0,0.3,0,0.4C57.3,12,57.1,12.1,56.9,12.1z M49.4,8h5.3l1.6,3.7c0,0.1,0.1,0.1,0.2,0.1h0.5c0.1,0,0.1,0,0.1-0.1
						c0,0,0-0.1,0-0.2L52.5,0.6c0-0.1-0.1-0.1-0.2-0.1h-0.6c-0.1,0-0.1,0-0.2,0.1l-4.6,10.9c0,0.1,0,0.1,0,0.2c0,0,0.1,0.1,0.1,0.1
						h0.5c0.1,0,0.1,0,0.2-0.1L49.4,8z M54.5,7.2h-4.7l2.3-5.7L54.5,7.2z M50.2,6.9H54l-1.9-4.6L50.2,6.9z"/>
				</g>
			</g>
		</g>
	</g>
</g>
</svg>
