<svg id="Logo" xmlns="http://www.w3.org/2000/svg" viewBox="0 0 145.47 56.69"><defs><style>.cls-1{fill:#fff;}.cls-2{fill:#9d9d9c;}</style></defs><title>tm_standaardlogo_negatief_zw</title><path class="cls-1" d="M144.12,53h-6c-4.32,0-6.87-.06-8.87-1.35a9.71,9.71,0,0,1-4.14-7.84V33.49c0-4.32.06-6.87,1.35-8.87a8.84,8.84,0,0,1,7.85-4h9.91a1.16,1.16,0,0,0,1.2-1.11V18.07a1.16,1.16,0,0,0-1.2-1.11H133.93c-4.56,0-8.9,2.57-10.64,6-1.24,2.14-1.69,4.86-1.7,10.28h0v10.6h0v.63a.35.35,0,0,0,.05.14c.27,4.31,2.67,8.48,5.93,10.14,2,1.15,4.49,1.61,9.16,1.69h7.35c.94,0,1.29-.39,1.29-1V54C145.39,53.27,144.82,53,144.12,53Z"/><path class="cls-1" d="M144.41,34.35h-7a1,1,0,0,0-1.12,1v1.41a1.06,1.06,0,0,0,1.06,1.06h7a1.06,1.06,0,0,0,1.06-1.06V35.4A1.06,1.06,0,0,0,144.41,34.35Z"/><path class="cls-1" d="M40.91,16.8H38.52a1.06,1.06,0,0,0-1,.59L21.14,50.73,4.67,17.4a1.06,1.06,0,0,0-1-.59H1.27A1.06,1.06,0,0,0,.21,17.87v37.7a1.06,1.06,0,0,0,1.06,1.06H2.8a1.06,1.06,0,0,0,1.06-1.06V23.94L19.73,56a1.06,1.06,0,0,0,1,.59h.86a1.06,1.06,0,0,0,1-.59L38.32,23.95V55.57a1.06,1.06,0,0,0,1.06,1.06h1.53A1.06,1.06,0,0,0,42,55.57V17.87a1.06,1.06,0,0,0-1.06-1.06"/><path class="cls-1" d="M114.53,37.83a13.24,13.24,0,0,0,2.61-8.31c0-4.6-2.53-9.19-6-10.95-2.18-1.26-4.95-1.71-10.54-1.71H92a1.06,1.06,0,0,0-1.06,1.06v37.7A1.06,1.06,0,0,0,92,56.69h1.53a1.06,1.06,0,0,0,1.06-1.06V20.37h6c4.34,0,6.89.06,8.9,1.36a9.62,9.62,0,0,1,4,7.87,9.83,9.83,0,0,1-2.9,7.3C108.51,39,104.25,39,101.71,39h-1.07a1.06,1.06,0,0,0-.87,1.68l11.06,15.59a1.06,1.06,0,0,0,.87.45h1.94A1.06,1.06,0,0,0,114.5,55l-9-12.64c3.48-.27,6.44-1.11,9-4.54"/><path class="cls-2" d="M80.82,22.15C77.08,18.49,72,17,66.6,16.48c-1.12-.1-1.09.55-1.09.55v2.21c0,.65,1.09.65,1.09.65A16.24,16.24,0,0,1,83.16,36.54,16.24,16.24,0,0,1,66.6,53.19,16.4,16.4,0,0,1,50,36.59v0h0c0-.69-.35-.73-.85-.73h-2c-.87,0-.71,1-.71,1h0a19.88,19.88,0,0,0,5.89,14.15,20.64,20.64,0,0,0,28.43,0,19.9,19.9,0,0,0,5.9-14.39A19.9,19.9,0,0,0,80.82,22.15Z"/><path class="cls-1" d="M24.77,11.07A4.8,4.8,0,0,1,20,6.13a4.77,4.77,0,1,1,9.53,0,4.75,4.75,0,0,1-4.76,4.94m0-10.91a5.84,5.84,0,0,0-5.84,6,5.84,5.84,0,1,0,11.68,0,5.85,5.85,0,0,0-5.84-6"/><path class="cls-1" d="M24.77,12.27a6,6,0,0,1-6-6.13,6,6,0,1,1,12,0A6,6,0,0,1,24.77,12.27Zm0-12a5.69,5.69,0,0,0-5.68,5.82,5.69,5.69,0,1,0,11.37,0A5.69,5.69,0,0,0,24.77.31Zm0,10.91a5,5,0,0,1-4.92-5.09,4.92,4.92,0,1,1,9.84,0A4.9,4.9,0,0,1,24.77,11.22Zm0-9.87a4.59,4.59,0,0,0-4.61,4.78,4.65,4.65,0,0,0,4.61,4.78,4.59,4.59,0,0,0,4.61-4.78A4.59,4.59,0,0,0,24.77,1.35Z"/><path class="cls-1" d="M6.68.35H.48A.32.32,0,0,0,.16.67v.4a.32.32,0,0,0,.32.33H3V11.6a.32.32,0,0,0,.32.32H3.8a.32.32,0,0,0,.32-.32V1.39H6.68A.33.33,0,0,0,7,1.07V.67A.32.32,0,0,0,6.68.35"/><path class="cls-1" d="M3.8,12.07H3.37a.48.48,0,0,1-.48-.48v-10H.48A.48.48,0,0,1,0,1.07V.67A.48.48,0,0,1,.48.19H6.68a.48.48,0,0,1,.48.48v.4a.48.48,0,0,1-.48.48H4.27v10A.48.48,0,0,1,3.8,12.07ZM.48.5A.17.17,0,0,0,.31.67v.4a.17.17,0,0,0,.17.17H3.2V11.6a.17.17,0,0,0,.17.17H3.8A.17.17,0,0,0,4,11.6V1.24H6.68a.17.17,0,0,0,.17-.17V.67A.17.17,0,0,0,6.68.5Z"/><path class="cls-1" d="M16.12.35h-.43a.32.32,0,0,0-.32.32V5.57h-5.3V.67A.32.32,0,0,0,9.74.35H9.31A.32.32,0,0,0,9,.67V11.6a.32.32,0,0,0,.32.32h.43a.32.32,0,0,0,.32-.32v-5h5.3v5a.32.32,0,0,0,.32.32h.43a.32.32,0,0,0,.32-.32V.67a.32.32,0,0,0-.32-.32"/><path class="cls-1" d="M16.12,12.07h-.43a.48.48,0,0,1-.48-.48V6.77h-5V11.6a.48.48,0,0,1-.48.48H9.31a.48.48,0,0,1-.48-.48V.67A.48.48,0,0,1,9.31.19h.43a.48.48,0,0,1,.48.48V5.42h5V.67a.48.48,0,0,1,.48-.48h.43a.48.48,0,0,1,.48.48V11.6A.48.48,0,0,1,16.12,12.07ZM9.91,6.46h5.61V11.6a.17.17,0,0,0,.17.17h.43a.17.17,0,0,0,.17-.17V.67A.17.17,0,0,0,16.12.5h-.43a.17.17,0,0,0-.17.17V5.73H9.91V.67A.17.17,0,0,0,9.74.5H9.31a.17.17,0,0,0-.17.17V11.6a.17.17,0,0,0,.17.17h.43a.17.17,0,0,0,.17-.17Z"/><path class="cls-1" d="M62.85,5.53l-.12,0c-1.54-.4-2.63-.8-2.62-2.24A2,2,0,0,1,62.22,1.2c1.13,0,1.79.61,2,1.88a.32.32,0,0,0,.32.27H65a.33.33,0,0,0,.24-.11A.32.32,0,0,0,65.31,3,3,3,0,0,0,62.25.16a3.32,3.32,0,0,0-2.38.95A3,3,0,0,0,59,3.33c0,2.31,2,2.82,3,3.07l.07,0c1,.28,2.4.66,2.4,2.37a2.33,2.33,0,0,1-4.66,0,.32.32,0,0,0-.32-.28h-.43a.32.32,0,0,0-.24.1.32.32,0,0,0-.08.24,3.41,3.41,0,0,0,6.81-.12,3.22,3.22,0,0,0-2.77-3.2"/><path class="cls-1" d="M62.2,12.27a3.53,3.53,0,0,1-3.55-3.4.47.47,0,0,1,.13-.36.48.48,0,0,1,.35-.15h.43a.48.48,0,0,1,.47.42,2.18,2.18,0,0,0,4.35,0c0-1.59-1.27-1.94-2.29-2.22l-.08,0c-1-.26-3.14-.8-3.14-3.22A3.15,3.15,0,0,1,59.76,1a3.48,3.48,0,0,1,2.49-1,3.16,3.16,0,0,1,3.22,3,.48.48,0,0,1-.11.38A.49.49,0,0,1,65,3.5h-.43a.47.47,0,0,1-.47-.39c-.22-1.19-.81-1.75-1.87-1.75a1.86,1.86,0,0,0-2,1.9c0,1.33,1,1.69,2.5,2.09l.12,0a3.36,3.36,0,0,1,2.88,3.35A3.56,3.56,0,0,1,62.2,12.27Zm-3.08-3.6a.17.17,0,0,0-.12.06.17.17,0,0,0,0,.12,3.25,3.25,0,0,0,6.5-.11,3.08,3.08,0,0,0-2.65-3.05l-.12,0c-1.55-.41-2.74-.84-2.73-2.39A2.16,2.16,0,0,1,62.22,1,2.09,2.09,0,0,1,64.4,3a.17.17,0,0,0,.16.14H65a.17.17,0,0,0,.13-.06.16.16,0,0,0,0-.13A2.87,2.87,0,0,0,62.25.31a3.16,3.16,0,0,0-2.27.9,2.84,2.84,0,0,0-.79,2.11c0,2.19,1.89,2.67,2.9,2.93l.08,0c1,.27,2.52.69,2.52,2.52a2.48,2.48,0,0,1-5,0,.17.17,0,0,0-.17-.15Z"/><path class="cls-1" d="M44.62.35h-.68a.32.32,0,0,0-.29.18L39,10.14,34.42.53a.32.32,0,0,0-.29-.18h-.69a.32.32,0,0,0-.32.32V11.6a.32.32,0,0,0,.32.32h.43a.32.32,0,0,0,.32-.32V2.52l4.43,9.21a.32.32,0,0,0,.29.18h.25a.32.32,0,0,0,.29-.18l4.41-9.21V11.6a.32.32,0,0,0,.32.32h.43a.32.32,0,0,0,.32-.32V.67a.32.32,0,0,0-.32-.32"/><path class="cls-1" d="M44.62,12.07h-.43a.48.48,0,0,1-.48-.48V3.21L39.59,11.8a.48.48,0,0,1-.43.27h-.25a.48.48,0,0,1-.43-.27l-4.14-8.6V11.6a.48.48,0,0,1-.48.48h-.43A.48.48,0,0,1,33,11.6V.67a.48.48,0,0,1,.48-.48h.69a.47.47,0,0,1,.43.27L39,9.78,43.51.46a.48.48,0,0,1,.43-.27h.68a.48.48,0,0,1,.48.48V11.6A.48.48,0,0,1,44.62,12.07ZM44,1.85V11.6a.17.17,0,0,0,.17.17h.43a.17.17,0,0,0,.17-.17V.67A.17.17,0,0,0,44.62.5h-.68a.16.16,0,0,0-.15.1L39,10.5,34.28.6a.16.16,0,0,0-.15-.1h-.69a.17.17,0,0,0-.17.17V11.6a.17.17,0,0,0,.17.17h.43A.17.17,0,0,0,34,11.6V1.84l4.72,9.82a.17.17,0,0,0,.15.09h.25a.17.17,0,0,0,.15-.1Z"/><path class="cls-1" d="M50,7.07,52.1,1.93l2.12,5.13ZM52.69.55a.32.32,0,0,0-.3-.2h-.56a.32.32,0,0,0-.3.2L47,11.47a.32.32,0,0,0,.3.44h.46a.32.32,0,0,0,.3-.2l1.51-3.61h5.13l1.51,3.61a.32.32,0,0,0,.3.2h.46a.33.33,0,0,0,.27-.14.32.32,0,0,0,0-.3Z"/><path class="cls-1" d="M56.94,12.07h-.46a.48.48,0,0,1-.44-.29L54.57,8.26H49.65l-1.47,3.52a.47.47,0,0,1-.44.29h-.46a.48.48,0,0,1-.44-.66L51.39.48a.47.47,0,0,1,.44-.29h.56a.48.48,0,0,1,.44.29l4.55,10.93a.48.48,0,0,1,0,.45A.48.48,0,0,1,56.94,12.07ZM49.44,8h5.34l1.55,3.71a.17.17,0,0,0,.15.1h.46a.17.17,0,0,0,.14-.08.16.16,0,0,0,0-.15L52.54.61a.16.16,0,0,0-.16-.1h-.56a.16.16,0,0,0-.15.1L47.12,11.53a.17.17,0,0,0,.16.23h.46a.16.16,0,0,0,.15-.1Zm5-.73H49.77l2.34-5.7Zm-4.22-.31H54L52.1,2.34Z"/></svg>